<mxfile host="app.diagrams.net" modified="2023-05-11T03:01:04.111Z" agent="Mozilla/5.0 (Windows NT 10.0; Win64; x64) AppleWebKit/537.36 (KHTML, like Gecko) Chrome/112.0.0.0 Safari/537.36" etag="w3A7KZyZgEqjtyiC_9qR" version="21.2.9" type="github">
  <diagram name="第 1 页" id="4PYNmQTapqSRAyNWMpjU">
    <mxGraphModel dx="890" dy="457" grid="1" gridSize="10" guides="1" tooltips="1" connect="1" arrows="1" fold="1" page="1" pageScale="1" pageWidth="827" pageHeight="1169" math="0" shadow="0">
      <root>
        <mxCell id="0" />
        <mxCell id="1" parent="0" />
        <mxCell id="LnGkOuIfEtzkuuQR5eDW-5" value="hasura" style="rounded=1;whiteSpace=wrap;html=1;verticalAlign=top;" vertex="1" parent="1">
          <mxGeometry x="210" y="200" width="320" height="200" as="geometry" />
        </mxCell>
        <mxCell id="LnGkOuIfEtzkuuQR5eDW-6" value="" style="edgeStyle=orthogonalEdgeStyle;rounded=0;orthogonalLoop=1;jettySize=auto;html=1;" edge="1" parent="1" source="LnGkOuIfEtzkuuQR5eDW-1" target="LnGkOuIfEtzkuuQR5eDW-5">
          <mxGeometry relative="1" as="geometry" />
        </mxCell>
        <mxCell id="LnGkOuIfEtzkuuQR5eDW-7" value="graphQL" style="edgeLabel;html=1;align=center;verticalAlign=middle;resizable=0;points=[];" vertex="1" connectable="0" parent="LnGkOuIfEtzkuuQR5eDW-6">
          <mxGeometry x="-0.2371" y="-2" relative="1" as="geometry">
            <mxPoint as="offset" />
          </mxGeometry>
        </mxCell>
        <mxCell id="LnGkOuIfEtzkuuQR5eDW-1" value="client" style="rounded=1;whiteSpace=wrap;html=1;" vertex="1" parent="1">
          <mxGeometry x="320" y="50" width="100" height="40" as="geometry" />
        </mxCell>
        <mxCell id="LnGkOuIfEtzkuuQR5eDW-2" value="鉴权(admin\匿名\其他角色)" style="rounded=1;whiteSpace=wrap;html=1;" vertex="1" parent="1">
          <mxGeometry x="260" y="240" width="226" height="60" as="geometry" />
        </mxCell>
        <mxCell id="LnGkOuIfEtzkuuQR5eDW-3" value="db" style="rounded=1;whiteSpace=wrap;html=1;" vertex="1" parent="1">
          <mxGeometry x="260" y="330" width="90" height="60" as="geometry" />
        </mxCell>
        <mxCell id="LnGkOuIfEtzkuuQR5eDW-10" style="edgeStyle=orthogonalEdgeStyle;rounded=0;orthogonalLoop=1;jettySize=auto;html=1;exitX=1;exitY=0.5;exitDx=0;exitDy=0;entryX=0;entryY=0.75;entryDx=0;entryDy=0;curved=1;fillColor=#dae8fc;strokeColor=#6c8ebf;startArrow=classic;startFill=1;" edge="1" parent="1" source="LnGkOuIfEtzkuuQR5eDW-4" target="LnGkOuIfEtzkuuQR5eDW-8">
          <mxGeometry relative="1" as="geometry" />
        </mxCell>
        <mxCell id="LnGkOuIfEtzkuuQR5eDW-4" value="action" style="rounded=1;whiteSpace=wrap;html=1;" vertex="1" parent="1">
          <mxGeometry x="380" y="330" width="90" height="60" as="geometry" />
        </mxCell>
        <mxCell id="LnGkOuIfEtzkuuQR5eDW-11" value="graphQL&lt;br&gt;例如header admin" style="edgeStyle=orthogonalEdgeStyle;rounded=0;orthogonalLoop=1;jettySize=auto;html=1;exitX=0.25;exitY=0;exitDx=0;exitDy=0;fillColor=#dae8fc;strokeColor=#6c8ebf;entryX=0.75;entryY=0;entryDx=0;entryDy=0;curved=1;" edge="1" parent="1" source="LnGkOuIfEtzkuuQR5eDW-8" target="LnGkOuIfEtzkuuQR5eDW-5">
          <mxGeometry relative="1" as="geometry">
            <mxPoint x="370" y="200" as="targetPoint" />
            <Array as="points">
              <mxPoint x="650" y="140" />
              <mxPoint x="450" y="140" />
            </Array>
          </mxGeometry>
        </mxCell>
        <mxCell id="LnGkOuIfEtzkuuQR5eDW-8" value="RestFul API Server" style="rounded=1;whiteSpace=wrap;html=1;verticalAlign=middle;" vertex="1" parent="1">
          <mxGeometry x="620" y="200" width="120" height="190" as="geometry" />
        </mxCell>
        <mxCell id="LnGkOuIfEtzkuuQR5eDW-12" style="edgeStyle=orthogonalEdgeStyle;rounded=0;orthogonalLoop=1;jettySize=auto;html=1;exitX=0.75;exitY=0;exitDx=0;exitDy=0;entryX=0.5;entryY=0;entryDx=0;entryDy=0;curved=1;fillColor=#dae8fc;strokeColor=#6c8ebf;" edge="1" parent="1" source="LnGkOuIfEtzkuuQR5eDW-5" target="LnGkOuIfEtzkuuQR5eDW-3">
          <mxGeometry relative="1" as="geometry">
            <Array as="points">
              <mxPoint x="450" y="270" />
              <mxPoint x="320" y="270" />
              <mxPoint x="320" y="280" />
              <mxPoint x="305" y="280" />
            </Array>
          </mxGeometry>
        </mxCell>
        <mxCell id="LnGkOuIfEtzkuuQR5eDW-13" style="edgeStyle=orthogonalEdgeStyle;rounded=0;orthogonalLoop=1;jettySize=auto;html=1;exitX=0.75;exitY=1;exitDx=0;exitDy=0;entryX=0.5;entryY=0;entryDx=0;entryDy=0;fillColor=#cce5ff;strokeColor=#66B2FF;curved=1;startArrow=classic;startFill=1;" edge="1" parent="1" source="LnGkOuIfEtzkuuQR5eDW-1" target="LnGkOuIfEtzkuuQR5eDW-4">
          <mxGeometry relative="1" as="geometry" />
        </mxCell>
        <mxCell id="LnGkOuIfEtzkuuQR5eDW-14" value="&lt;font style=&quot;font-size: 11px;&quot;&gt;1.0 登录&lt;br&gt;&lt;/font&gt;" style="text;html=1;strokeColor=none;fillColor=none;align=center;verticalAlign=middle;whiteSpace=wrap;rounded=0;fontSize=12;" vertex="1" parent="1">
          <mxGeometry x="380" y="150" width="60" height="30" as="geometry" />
        </mxCell>
        <mxCell id="LnGkOuIfEtzkuuQR5eDW-15" value="1.1 call rest" style="text;html=1;strokeColor=none;fillColor=none;align=center;verticalAlign=middle;whiteSpace=wrap;rounded=0;" vertex="1" parent="1">
          <mxGeometry x="530" y="310" width="80" height="30" as="geometry" />
        </mxCell>
        <mxCell id="LnGkOuIfEtzkuuQR5eDW-16" value="1.2 查询登录者信息" style="text;html=1;strokeColor=none;fillColor=none;align=center;verticalAlign=middle;whiteSpace=wrap;rounded=0;" vertex="1" parent="1">
          <mxGeometry x="520" y="90" width="80" height="30" as="geometry" />
        </mxCell>
        <mxCell id="LnGkOuIfEtzkuuQR5eDW-17" value="1.3返回用户信息" style="text;html=1;strokeColor=none;fillColor=none;align=center;verticalAlign=middle;whiteSpace=wrap;rounded=0;" vertex="1" parent="1">
          <mxGeometry x="520" y="170" width="80" height="30" as="geometry" />
        </mxCell>
        <mxCell id="LnGkOuIfEtzkuuQR5eDW-20" value="1.4 jwt token" style="text;html=1;strokeColor=none;fillColor=none;align=center;verticalAlign=middle;whiteSpace=wrap;rounded=0;" vertex="1" parent="1">
          <mxGeometry x="540" y="370" width="70" height="30" as="geometry" />
        </mxCell>
        <mxCell id="LnGkOuIfEtzkuuQR5eDW-21" value="1.4jwt token" style="text;html=1;strokeColor=none;fillColor=none;align=center;verticalAlign=middle;whiteSpace=wrap;rounded=0;" vertex="1" parent="1">
          <mxGeometry x="395" y="110" width="75" height="30" as="geometry" />
        </mxCell>
        <mxCell id="LnGkOuIfEtzkuuQR5eDW-22" style="edgeStyle=orthogonalEdgeStyle;rounded=0;orthogonalLoop=1;jettySize=auto;html=1;exitX=0.25;exitY=1;exitDx=0;exitDy=0;entryX=0.25;entryY=0;entryDx=0;entryDy=0;fillColor=#f8cecc;strokeColor=#b85450;curved=1;startArrow=classic;startFill=1;" edge="1" parent="1" source="LnGkOuIfEtzkuuQR5eDW-1" target="LnGkOuIfEtzkuuQR5eDW-3">
          <mxGeometry relative="1" as="geometry">
            <Array as="points">
              <mxPoint x="320" y="90" />
              <mxPoint x="320" y="210" />
              <mxPoint x="283" y="210" />
            </Array>
          </mxGeometry>
        </mxCell>
        <mxCell id="LnGkOuIfEtzkuuQR5eDW-23" value="2.0查看用户信息&lt;br&gt;header&amp;nbsp;Authorization&lt;br&gt;header&amp;nbsp;X-Hasura-Role" style="text;html=1;strokeColor=none;fillColor=none;align=center;verticalAlign=middle;whiteSpace=wrap;rounded=0;" vertex="1" parent="1">
          <mxGeometry x="180" y="140" width="130" height="30" as="geometry" />
        </mxCell>
      </root>
    </mxGraphModel>
  </diagram>
</mxfile>
